# xmcd
#
# Track frame offsets: 
#        150
#        37577
#        58641
#        93237
#        124207
#        167433
#        194954
#        224274
#        253258
#
# Disc length: 3892 seconds
#
# Revision: 0
# Processed by: cddbd v1.5.2PL0 Copyright (c) Steve Scherf et al.
# Submitted via: ExactAudioCopyFreeDBPlugin 1.0
#
DISCID=7d0f3209
DTITLE=Alain Bédard Auguste quintet - Alain Bédard Auguste quintet
DYEAR=2008
DGENRE=Blues
TTITLE0=Bluesy lunedi
TTITLE1=Simplement
TTITLE2=Archange
TTITLE3=Inside
TTITLE4=Double vie - suite
TTITLE5=55
TTITLE6=Monky
TTITLE7=Nécéssité
TTITLE8=Toutatoué
EXTD=
EXTT0=
EXTT1=
EXTT2=
EXTT3=
EXTT4=
EXTT5=
EXTT6=
EXTT7=
EXTT8=
PLAYORDER=
